<?xml version="1.0" encoding="UTF-8"?>
<svg version="1.1" xmlns="http://www.w3.org/2000/svg" width="256" height="256">
<path d="M0 0 C4.69092997 0.69218606 6.5880853 2.80558248 9.5546875 6.23046875 C15.90083314 13.06916001 22.19522744 18.04479235 31.78125 18.78125 C43.03196466 19.01823845 50.45913126 17.14104734 58.7421875 9.42578125 C60.07610877 8.12951099 61.40940625 6.83259861 62.7421875 5.53515625 C67.92596776 0.68518002 67.92596776 0.68518002 71.9921875 -0.08203125 C75.08343237 0.6368629 75.77726924 1.05821185 77.6796875 3.54296875 C78.68821716 6.63885498 78.68821716 6.63885498 79.58374023 10.49121094 C79.7504016 11.19578808 79.91706297 11.90036522 80.08877468 12.62629318 C80.63019219 14.92942122 81.15554017 17.23585452 81.6796875 19.54296875 C82.03557673 21.0787853 82.39203549 22.61446998 82.74905396 24.15002441 C83.92195728 29.21974719 85.06873042 34.29526005 86.21484375 39.37109375 C86.65070508 41.2951957 87.0867243 43.2192619 87.52288818 45.14329529 C88.68980479 50.29296525 89.85452626 55.44312926 91.01874161 60.59341049 C92.2355724 65.97504449 93.45419336 71.35627311 94.67260742 76.73754883 C96.4270739 84.4872115 98.18077159 92.23704754 99.93365192 99.98706913 C102.83092465 112.79647554 105.73373911 125.60461694 108.63937569 138.41212845 C109.96222277 144.24394665 111.28402789 150.07600108 112.60571194 155.90808296 C113.64949583 160.51371972 114.69378391 165.11924079 115.73928833 169.7244873 C116.71441463 174.019989 117.68790545 178.31585808 118.66013336 182.61201668 C119.01445473 184.17641707 119.3693618 185.74068494 119.72490692 187.30480766 C120.20856669 189.43291245 120.69011495 191.5614845 121.17114258 193.69018555 C121.44009842 194.87654099 121.70905426 196.06289642 121.98616028 197.28520203 C125.08538165 211.84344853 124.53123192 224.4800748 116.40234375 237.22265625 C109.86049626 246.0341243 100.557084 251.05851114 89.91467667 253.11716461 C82.85665656 254.04617365 75.70395975 253.8195865 68.59716797 253.80175781 C66.77618266 253.80447154 64.95519846 253.8080346 63.13421631 253.81237793 C58.21291305 253.82145753 53.2916941 253.81797635 48.37038946 253.81161976 C43.20917384 253.80653832 38.04796519 253.81125702 32.88674927 253.81439209 C24.22347728 253.81802484 15.56023945 253.8132501 6.89697266 253.80371094 C-3.10851244 253.79282085 -13.11391606 253.79635878 -23.11939919 253.80736375 C-31.72433262 253.81644812 -40.32924156 253.81771648 -48.93417823 253.81248641 C-54.06736008 253.80937393 -59.20050365 253.80893768 -64.33368301 253.81555939 C-69.1583995 253.82134918 -73.98301117 253.81730606 -78.80771637 253.80577087 C-80.57495068 253.80313332 -82.34219385 253.80387388 -84.10942459 253.8082962 C-86.52783039 253.81378877 -88.94590353 253.80687297 -91.36428833 253.79693604 C-92.40467701 253.8036282 -92.40467701 253.8036282 -93.46608365 253.81045556 C-100.98643747 253.75081746 -107.35384423 252.31614337 -113.3203125 247.54296875 C-118.20683069 242.4343361 -120.3469483 238.13296368 -120.6328125 231.10546875 C-120.46402713 224.81821379 -118.10912134 219.59014345 -113.8828125 214.8984375 C-108.5893581 210.3063658 -102.68590211 209.10366925 -95.85644531 209.20898438 C-87.85299568 209.96490257 -80.05678242 212.09697879 -72.2578125 213.98046875 C-70.446213 214.4066607 -68.63436541 214.83179959 -66.82226562 215.25585938 C-53.70584563 218.35020218 -53.70584563 218.35020218 -51.3203125 219.54296875 C-51.52797745 218.29320755 -51.7356424 217.04344635 -51.94960022 215.7558136 C-52.58510365 209.94609003 -51.5028091 204.80128382 -50.25170898 199.13745117 C-50.022462 198.04954631 -49.79321501 196.96164145 -49.55702114 195.84076977 C-48.82743866 192.40449579 -48.0765 188.97347797 -47.3203125 185.54296875 C-47.0869582 184.47239353 -46.8536039 183.40181831 -46.61317825 182.29880142 C-44.91878118 174.53443694 -43.17240236 166.78223092 -41.41796875 159.03125 C-40.85706798 156.54248986 -40.29644158 154.05366787 -39.73606873 151.56478882 C-38.25845861 145.00568738 -36.77718788 138.44741948 -35.29464722 131.889431 C-34.37877004 127.83801428 -33.46368623 123.78641867 -32.54882812 119.73477173 C-32.39713484 119.062972 -32.24544155 118.39117226 -32.0891515 117.69901496 C-31.32463611 114.31313236 -30.56017641 110.92723717 -29.79571342 107.54134274 C-29.64511125 106.87431609 -29.49450907 106.20728944 -29.33934319 105.52004987 C-29.03620681 104.17743514 -28.73307657 102.83481902 -28.4299525 101.49220151 C-27.67798695 98.16169407 -26.92581309 94.8312339 -26.17322159 91.50086784 C-22.77274052 76.45301738 -19.38708312 61.40225401 -16.05831718 46.33836555 C-15.08132149 41.92043669 -14.09928466 37.50362503 -13.11748981 33.08676052 C-12.40172884 29.86352002 -11.69140558 26.63921563 -10.98806763 23.41323853 C-10.24374101 19.99986624 -9.48677154 16.58955081 -8.7265625 13.1796875 C-8.52155624 12.22009125 -8.31654999 11.260495 -8.10533142 10.27182007 C-7.91137283 9.41343536 -7.71741425 8.55505066 -7.51757812 7.6706543 C-7.35696899 6.93783737 -7.19635986 6.20502045 -7.03088379 5.44999695 C-5.60981407 1.6361361 -3.9688741 0.64902765 0 0 Z " fill="#FEFEFE" transform="translate(126.3203125,1.45703125)"/>
<path d="M0 0 C3.4375 0.875 3.4375 0.875 5.4375 3.875 C5.58250871 6.48829314 5.61865646 9.00330042 5.5703125 11.61328125 C5.57111934 13.17122593 5.57378219 14.72917054 5.578125 16.28710938 C5.57616266 18.73685155 5.56256177 21.1842083 5.51660156 23.63354492 C4.9828157 32.92693985 4.9828157 32.92693985 8.20605469 41.21899414 C10.22331423 42.69912301 12.21144129 43.75260314 14.4375 44.875 C17.81078152 49.61867713 18.02476091 54.22826044 17.4375 59.875 C17.1075 60.535 16.7775 61.195 16.4375 61.875 C11.4875 61.875 6.5375 61.875 1.4375 61.875 C2.4275 60.555 3.4175 59.235 4.4375 57.875 C4.93809916 55.28982413 4.93809916 55.28982413 4.4375 52.875 C1.56795871 50.75480209 1.56795871 50.75480209 -1.625 49.9375 C-4.5625 48.875 -4.5625 48.875 -6.5625 45.875 C-6.82319641 43.90197754 -6.82319641 43.90197754 -6.8371582 41.63476562 C-6.85145622 40.35829163 -6.85145622 40.35829163 -6.86604309 39.05603027 C-6.86513168 38.14035278 -6.86422028 37.22467529 -6.86328125 36.28125 C-6.86970894 34.8666449 -6.86970894 34.8666449 -6.87626648 33.42346191 C-6.88200932 31.42961429 -6.88251038 29.43574571 -6.87817383 27.44189453 C-6.87501209 24.38668223 -6.89847976 21.33243642 -6.92382812 18.27734375 C-6.92610089 16.34114706 -6.92680472 14.40494776 -6.92578125 12.46875 C-6.934991 11.55307251 -6.94420074 10.63739502 -6.95368958 9.69396973 C-6.94746078 8.84298706 -6.94123199 7.99200439 -6.93481445 7.11523438 C-6.93544388 6.36705444 -6.9360733 5.61887451 -6.9367218 4.84802246 C-6.12238625 0.55457315 -4.14847944 -0.14556068 0 0 Z " fill="#040404" transform="translate(180.5625,192.125)"/>
<path d="M0 0 C3.4375 0.875 3.4375 0.875 5.4375 3.875 C5.70492554 5.7653656 5.70492554 5.7653656 5.72802734 7.91577148 C5.7471669 9.12734169 5.7471669 9.12734169 5.76669312 10.36338806 C5.77003159 11.66657738 5.77003159 11.66657738 5.7734375 12.99609375 C5.7800943 13.89240005 5.7867511 14.78870636 5.79360962 15.71217346 C5.8037337 17.60765531 5.80842671 19.50317278 5.80810547 21.39868164 C5.81247856 24.29828602 5.84879963 27.19636812 5.88671875 30.09570312 C5.89258698 31.93749479 5.89655633 33.77929369 5.8984375 35.62109375 C5.91280853 36.4878624 5.92717957 37.35463104 5.94198608 38.24766541 C5.89660119 44.22840702 5.89660119 44.22840702 3.60400391 47.45727539 C1.4375 48.875 1.4375 48.875 -1.6875 48.8125 C-4.5625 47.875 -4.5625 47.875 -6.5625 44.875 C-6.82319641 42.93994141 -6.82319641 42.93994141 -6.8371582 40.7265625 C-6.84669022 39.89560059 -6.85622223 39.06463867 -6.86604309 38.20849609 C-6.86513168 37.31469238 -6.86422028 36.42088867 -6.86328125 35.5 C-6.86756638 34.57912598 -6.8718515 33.65825195 -6.87626648 32.70947266 C-6.88200889 30.76270368 -6.8825107 28.81591324 -6.87817383 26.86914062 C-6.87501203 23.88634793 -6.89848035 20.90454517 -6.92382812 17.921875 C-6.92610089 16.03125125 -6.92680472 14.14062484 -6.92578125 12.25 C-6.934991 11.35619629 -6.94420074 10.46239258 -6.95368958 9.54150391 C-6.94746078 8.71054199 -6.94123199 7.87958008 -6.93481445 7.0234375 C-6.93544388 6.29302246 -6.9360733 5.56260742 -6.9367218 4.81005859 C-6.1112864 0.54182553 -4.11919113 -0.14453302 0 0 Z " fill="#040404" transform="translate(144.5625,192.125)"/>
<path d="M0 0 C4.31471667 0.41289155 8.07659429 1.11472713 12 3 C15.17931871 7.40508015 17.31556574 12.2753592 16.6796875 17.765625 C15.87576049 20.40841954 15.36218192 21.53381812 13 23 C10.125 23.1875 10.125 23.1875 7 22 C1.3487946 15.76205743 -0.12773492 8.19825943 0 0 Z " fill="#090909" transform="translate(63,218)"/>
<path d="M0 0 C2 3 2 3 1.8125 6.0625 C1 9 1 9 -2 11 C-5.0625 10.8125 -5.0625 10.8125 -8 10 C-10.14762184 6.77856724 -10.561068 5.7404533 -10 2 C-6.90683058 -1.56904164 -4.34457838 -1.32226299 0 0 Z " fill="#080808" transform="translate(186,63)"/>
<path d="M0 0 C2 3 2 3 1.8125 6.0625 C1 9 1 9 -2 11 C-5.0625 10.8125 -5.0625 10.8125 -8 10 C-10.14762184 6.77856724 -10.561068 5.7404533 -10 2 C-6.90683058 -1.56904164 -4.34457838 -1.32226299 0 0 Z " fill="#080808" transform="translate(146,63)"/>
</svg>
